<?xml version="1.0" encoding="utf-8"?>
<!-- Generator: Adobe Illustrator 25.1.0, SVG Export Plug-In . SVG Version: 6.00 Build 0)  -->
<svg version="1.1" id="_x31_" xmlns="http://www.w3.org/2000/svg" xmlns:xlink="http://www.w3.org/1999/xlink" x="0px" y="0px"
	 viewBox="0 0 332 357.7" style="enable-background:new 0 0 332 357.7;" xml:space="preserve">
<g>
	<g>
		<g>
			<path d="M191,119.3c-19.7,19.8-45.1,31.9-72.4,35c29.3,24.5,51.5,57,63.6,93.4c1.9,5.6-1.1,11.6-6.7,13.5
				c-5.7,1.9-11.6-1.2-13.5-6.7c-13-38.9-38.9-72.9-73-95.7c-0.1-0.1-0.2-0.1-0.3-0.2l-7.9-5.3c-3.9-2.6-5.7-7.5-4.3-12
				c0.5-1.5,1.3-2.9,2.3-4.1c2-2.2,4.8-3.5,7.9-3.5h17.8c6.5,0,12.9-0.6,19.2-1.8c19.6-3.8,37.7-13.3,52.1-27.7
				c3.3-3.3,2.3-7,1.7-8.4S175,91,170.4,91H68.9c-10.2,0-19.3,6.5-22.5,16.2l-5.1,15.3l-16.2,48.4c-7.4,22.3-3.8,47.2,9.7,66.5
				l42.3,60.4c6.3,9,9.7,19.6,9.7,30.6v18.5c0,5.9-4.8,10.7-10.7,10.7s-10.7-4.8-10.7-10.7v-18.5c0-6.6-2-12.9-5.8-18.3l-42.3-60.5
				C0,224.9-4.7,193,4.9,164.3l21.3-63.7c5.3-15.8,18.7-27.2,34.6-30.1c2.6-0.5,5.4-0.8,8.1-0.8h101.6c12,0,22.2,6.9,26.8,17.9
				C201.8,98.7,199.4,110.9,191,119.3z"/>
		</g>
	</g>
	<g>
		<g>
			<path d="M204,207.7c-7.2,0-14.5-1.8-21.2-5.7c-20.4-11.8-27.4-37.9-15.6-58.3l42.7-73.9c11.8-20.4,37.9-27.4,58.3-15.6
				c9.9,5.7,16.9,14.9,19.9,25.9c2.9,11,1.4,22.5-4.3,32.4l-42.7,73.9C233.2,200,218.8,207.7,204,207.7L204,207.7z M193.4,183.5
				c10.2,5.8,23.3,2.3,29.1-7.8l42.7-73.9c2.9-4.9,3.6-10.7,2.1-16.2s-5-10.1-9.9-12.9c-10.2-5.8-23.3-2.3-29.1,7.8l-42.7,73.8
				C179.7,164.5,183.2,177.6,193.4,183.5L193.4,183.5z"/>
		</g>
	</g>
	<g>
		<g>
			<path d="M167.4,31.6c-2.9-11-10-20.2-19.8-25.9c-20.3-11.8-46.5-4.8-58.3,15.5L60.8,70.5L46.6,95.1c-5,8.7-6.6,18.4-5.3,27.6
				l5.1-15.3c3.2-9.7,12.3-16.2,22.5-16.2h4.6l12.3-21.3l21.9-37.8c5.9-10.2,19-13.6,29.1-7.8c4.9,2.8,8.5,7.5,9.9,13
				c1.5,5.5,0.7,11.3-2.2,16.2L135,70l-12.3,21.3h24.7L159.8,70l3.3-5.8C168.8,54.2,170.4,42.7,167.4,31.6z"/>
		</g>
	</g>
	<g>
		<g>
			<path d="M142.3,186.3c-7.2,0-14.6-1.9-21.2-5.8c-12.8-7.3-21-21.3-21.3-36.3c-0.1-5.9,4.6-10.8,10.5-10.9h0.2
				c5.8,0,10.6,4.7,10.7,10.5c0.1,7.6,4.2,14.6,10.6,18.2c10.3,6,23.1,2.6,29.2-7.9l42.6-73.7c1.9-3.2,2.8-6.8,2.8-10.7
				c0-7.7-4-14.6-10.7-18.5c-10.2-5.8-23.3-2.4-29.1,7.8l-15.4,26.7c-2.9,5.1-9.5,6.8-14.6,3.9c-5.1-2.9-6.9-9.5-3.9-14.6l15.4-26.7
				c11.6-20.3,37.7-27.4,58.3-15.7c13.2,7.7,21.4,21.9,21.4,37c0,7.6-2,15-5.7,21.4l-42.6,73.8C171.4,178.6,157.1,186.3,142.3,186.3
				L142.3,186.3z"/>
		</g>
	</g>
	<g>
		<g>
			<path d="M259.2,240.4c-7.2,0-14.5-1.8-21.3-5.7l0,0C228,229,221,219.8,218,208.8c-2.9-11-1.4-22.5,4.3-32.4l30.1-52.2
				c11.8-20.4,37.9-27.4,58.3-15.6c9.9,5.7,16.9,14.9,19.9,25.9c2.9,11,1.4,22.5-4.3,32.4l-30.1,52.2
				C288.4,232.8,274,240.4,259.2,240.4L259.2,240.4z M289.5,124.3c-7.4,0-14.6,3.8-18.5,10.6l-30.1,52.2c-2.9,4.9-3.6,10.7-2.1,16.2
				s5,10.1,9.9,12.9c10.2,5.8,23.3,2.4,29.1-7.8l30.1-52.2c2.9-4.9,3.6-10.7,2.1-16.2s-5-10.1-9.9-12.9
				C296.8,125.2,293.1,124.3,289.5,124.3L289.5,124.3z"/>
		</g>
	</g>
	<g>
		<g>
			<path d="M262.8,357.7c-5.9,0-10.7-4.8-10.7-10.7v-16.6c0-12.5,4.4-24.6,12.3-34.1l7.1-8.4c21.2-25.3,30.7-58.7,26-91.7l-1.9-13.9
				c-0.8-5.8,3.3-11.2,9.1-12c5.8-0.8,11.2,3.3,12,9.1l1.9,13.9c5.6,38.9-5.7,78.4-30.8,108.4l-7.1,8.4c-4.7,5.6-7.3,12.9-7.3,20.4
				v16.6C273.5,353,268.7,357.7,262.8,357.7L262.8,357.7z"/>
		</g>
	</g>
</g>
</svg>
