<?xml version="1.0" encoding="utf-8"?>
<!-- Generator: Adobe Illustrator 25.1.0, SVG Export Plug-In . SVG Version: 6.00 Build 0)  -->
<svg version="1.1" id="_x31_" xmlns="http://www.w3.org/2000/svg" xmlns:xlink="http://www.w3.org/1999/xlink" x="0px" y="0px"
	 viewBox="0 0 332.2 512.1" style="enable-background:new 0 0 332.2 512.1;" xml:space="preserve">
<g>
	<g>
		<g>
			<path d="M76.1,512.1c-5.9,0-10.7-4.8-10.7-10.7v-18.5c0-6.6-2-12.9-5.8-18.4l-42.3-60.4c-17.4-24.8-22-56.7-12.4-85.4L26.1,255
				c6.1-18.4,23.3-30.8,42.8-30.8h101.5c12,0,22.2,6.9,26.8,17.9c4.6,11.1,2.2,23.2-6.3,31.6c-19.8,19.7-45.1,31.9-72.4,35
				c29.3,24.5,51.5,57,63.6,93.4c1.9,5.6-1.2,11.6-6.7,13.5c-5.6,1.9-11.6-1.2-13.5-6.7c-13-39-39-73.1-73.3-95.9l-7.9-5.2
				c-3.9-2.6-5.7-7.5-4.3-12c1.4-4.5,5.5-7.6,10.2-7.6h17.8c26.9,0,52.2-10.5,71.3-29.5c3.3-3.3,2.3-7,1.7-8.4
				c-0.6-1.5-2.5-4.8-7.1-4.8H68.8c-10.2,0-19.3,6.5-22.5,16.2l-21.2,63.7c-7.4,22.3-3.8,47.1,9.7,66.4l42.3,60.5
				c6.3,9,9.6,19.6,9.6,30.6v18.5C86.8,507.3,82,512.1,76.1,512.1L76.1,512.1z"/>
		</g>
	</g>
	<g>
		<g>
			<path d="M204,361.9c-7.2,0-14.5-1.8-21.2-5.7c-9.9-5.7-16.9-14.9-19.9-25.9c-2.9-11-1.4-22.5,4.3-32.4l42.7-73.9
				c5.7-9.9,14.9-16.9,25.9-19.9c11-2.9,22.5-1.4,32.4,4.3c20.4,11.8,27.4,37.9,15.6,58.3l-42.7,73.9
				C233.2,354.3,218.8,361.9,204,361.9L204,361.9z M193.4,337.8c10.2,5.8,23.3,2.3,29.2-7.8l42.7-73.9c5.9-10.2,2.4-23.3-7.8-29.2
				c-4.9-2.9-10.7-3.5-16.2-2.1c-5.5,1.5-10.1,5-12.9,10l-42.7,73.9c-2.9,4.9-3.6,10.7-2.1,16.2C185,330.3,188.5,334.9,193.4,337.8
				L193.4,337.8z"/>
		</g>
	</g>
	<g>
		<g>
			<path d="M259.3,394.7c-7.4,0-14.7-1.9-21.3-5.8l0,0c-20.4-11.8-27.4-37.9-15.6-58.3l30.1-52.1c5.7-9.9,14.9-16.9,25.9-19.9
				s22.5-1.4,32.4,4.3c20.4,11.8,27.4,37.9,15.6,58.3l-30.1,52.1c-5.7,9.9-14.9,16.9-25.9,19.9C266.7,394.2,263,394.7,259.3,394.7
				L259.3,394.7z M289.4,278.6c-1.8,0-3.7,0.3-5.5,0.7c-5.5,1.5-10.1,5-12.9,10l-30.1,52.1c-5.9,10.2-2.4,23.3,7.8,29.1
				c4.9,2.9,10.7,3.6,16.2,2.1s10.1-5,12.9-9.9l30.1-52.1c5.9-10.2,2.4-23.3-7.8-29.1C296.8,279.5,293.2,278.6,289.4,278.6z"/>
		</g>
	</g>
	<g>
		<g>
			<path d="M140.1,245.4c-5.2,0-9.7-3.8-10.5-9.1L101.7,49.9C100.2,39.7,91.2,32,80.9,32C74.8,32,69,34.7,65,39.3S59.2,50,60.1,56.1
				l26.2,176.6c0.9,5.8-3.2,11.2-9,12.1c-5.7,0.9-11.2-3.1-12.1-9L39,59.3c-1.8-12.2,1.8-24.5,9.8-33.9c8-9.3,19.7-14.7,32.1-14.7
				c20.8,0,38.8,15.5,41.9,36.1l28,186.3c0.9,5.8-3.1,11.2-9,12.1C141.2,245.4,140.6,245.4,140.1,245.4L140.1,245.4z"/>
		</g>
	</g>
	<g>
		<g>
			<path d="M201.6,266.7c-0.7,0-1.3-0.1-2-0.2c-5.8-1.1-9.6-6.7-8.5-12.5l39.2-207.4c1.2-6.3-0.5-12.7-4.5-17.5
				c-4.1-4.9-10-7.7-16.4-7.7c-10.3,0-19.1,7.3-20.9,17.4l-36.7,197.8c-1.1,5.8-6.6,9.6-12.4,8.5s-9.6-6.6-8.5-12.4l36.7-197.8
				C171.3,14.7,189,0,209.5,0c12.7,0,24.7,5.6,32.8,15.4c8.1,9.8,11.4,22.6,9.1,35.1l-39.2,207.4
				C211.1,263.2,206.6,266.7,201.6,266.7L201.6,266.7z"/>
		</g>
	</g>
	<g>
		<g>
			<path d="M262.8,512c-5.9,0-10.7-4.8-10.7-10.7v-16.6c0-12.5,4.4-24.6,12.3-34.1l7.1-8.4c21.2-25.3,30.7-58.7,25.9-91.7l-1.9-13.9
				c-0.8-5.8,3.3-11.2,9.1-12c5.8-0.8,11.2,3.3,12,9.1l1.9,13.8c5.6,38.9-5.7,78.4-30.8,108.4l-7.1,8.4c-4.7,5.6-7.3,12.9-7.3,20.4
				v16.6C273.5,507.3,268.7,512,262.8,512z"/>
		</g>
	</g>
</g>
</svg>
